<svg xmlns="http://www.w3.org/2000/svg" version="1.1" viewBox="-5.0 -10.0 110.0 135.0">
 <path d="m75.562 34.375h-3.6875v-9.375c0-4.9727-1.9766-9.7422-5.4922-13.258-3.5156-3.5156-8.2852-5.4922-13.258-5.4922h-6.25c-4.9727 0-9.7422 1.9766-13.258 5.4922-3.5156 3.5156-5.4922 8.2852-5.4922 13.258v9.375h-3.6875c-5.0156 0.16797-8.9531 4.3594-8.8125 9.375v40.625c-0.14062 5.0156 3.7969 9.207 8.8125 9.375h51.125c5.0156-0.16797 8.9531-4.3594 8.8125-9.375v-40.625c0.14062-5.0156-3.7969-9.207-8.8125-9.375zm-41.188-9.375c0-6.9023 5.5977-12.5 12.5-12.5h6.25c3.3164 0 6.4961 1.3164 8.8398 3.6602s3.6602 5.5234 3.6602 8.8398v9.375h-31.25zm43.75 59.375c0.12891 1.5625-1.0039 2.9453-2.5625 3.125h-51.125c-1.5586-0.17969-2.6914-1.5625-2.5625-3.125v-40.625c-0.12891-1.5625 1.0039-2.9453 2.5625-3.125h51.125c1.5586 0.17969 2.6914 1.5625 2.5625 3.125zm-21.875-25c0.019531 2.2539-1.1719 4.3438-3.125 5.4688 0.03125 0.25781 0.03125 0.52344 0 0.78125v6.25c0 1.7266-1.3984 3.125-3.125 3.125s-3.125-1.3984-3.125-3.125v-6.25c0.019531-0.26562 0.070312-0.52734 0.15625-0.78125-1.9805-1.0703-3.2344-3.1211-3.2812-5.375-0.042969-2.25 1.125-4.3516 3.0625-5.5 1.9336-1.1484 4.3398-1.168 6.293-0.046875 1.9531 1.1172 3.1562 3.2031 3.1445 5.4531z"/>
</svg>